<svg xmlns="http://www.w3.org/2000/svg" viewBox="0 0 96 96" role="img" aria-labelledby="title desc">
  <title id="title">Rugbymonkey logo</title>
  <desc id="desc">A compact Rugbymonkey mark combining a rugby ball and monkey face.</desc>
  <rect width="96" height="96" rx="16" fill="#f7f3e8"/>
  <path d="M14 82 82 14v68H14Z" fill="#71845c"/>
  <path d="M22 39c0-17 12-28 26-28s26 11 26 28c0 21-14 36-26 36S22 60 22 39Z" fill="#11160f"/>
  <circle cx="23" cy="42" r="10" fill="#11160f"/>
  <circle cx="73" cy="42" r="10" fill="#11160f"/>
  <ellipse cx="48" cy="45" rx="20" ry="17" fill="#e4e8d8"/>
  <circle cx="40" cy="41" r="3.5" fill="#11160f"/>
  <circle cx="56" cy="41" r="3.5" fill="#11160f"/>
  <path d="M43 53c3 3 7 3 10 0" fill="none" stroke="#11160f" stroke-width="4" stroke-linecap="round"/>
  <path d="M33 23c8-6 22-6 30 0M31 68c11 8 23 8 34 0" fill="none" stroke="#71845c" stroke-width="5" stroke-linecap="round"/>
  <path d="M48 13v62" fill="none" stroke="#f7f3e8" stroke-width="2.5" stroke-linecap="round" stroke-dasharray="5 6" opacity=".88"/>
  <text x="48" y="88" text-anchor="middle" font-family="Inter,Arial,sans-serif" font-size="14" font-weight="900" fill="#11160f">RM</text>
</svg>
